<?xml version="1.0" encoding="UTF-8"?>
<svg width="328px" height="96px" viewBox="0 0 328 96" version="1.1" xmlns="http://www.w3.org/2000/svg" xmlns:xlink="http://www.w3.org/1999/xlink">
    <!-- Generator: Sketch 58 (84663) - https://sketch.com -->
    <title>08-Logo/Line</title>
    <desc>Created with Sketch.</desc>
    <defs>
        <polygon id="path-1" points="26.3960396 31.3766731 26.3960396 0.436822388 0.000185235366 0.436822388 0.000185235366 31.3766731"/>
    </defs>
    <g id="08-Logo/Line" stroke="none" stroke-width="1" fill="none" fill-rule="evenodd">
        <g id="08-Logo/Text-Black" transform="translate(87.000000, 27.000000)" fill="#35312E">
            <polygon id="Fill-1" points="18.0168895 4.69053613 0.9998895 41.4041118 0.9998895 42.6144857 11.0001395 42.6144857 13.3758895 37.4961286 13.4863895 37.3304521 13.6521395 37.3304521 30.117192 37.3304521 30.3376395 37.3304521 30.3928895 37.4961286 32.7686395 42.6144857 42.7688895 42.6144857 42.7688895 41.4041118 36.9123895 28.7438975 26.6358895 28.7438975 17.1881395 28.7438975 16.746692 28.7438975 16.9118895 28.3586034 21.553442 17.4057924 21.8291395 16.8003303 22.105942 17.4057924 24.9231395 23.845158 32.548192 19.3317126 24.039692 1.05776303"/>
            <polygon id="Fill-2" points="35.6971105 1.05792815 35.6971105 10.3594786 47.1891105 10.3594786 47.4653605 10.3594786 47.4653605 10.6352391 47.4653605 42.6146508 57.3551105 42.6146508 57.3551105 10.6352391 57.3551105 10.3594786 57.6313605 10.3594786 69.0681105 10.3594786 69.0681105 1.05792815"/>
            <polygon id="Fill-3" points="71.8307763 1.05792815 71.8307763 42.6146508 97.5214738 42.6146508 97.5214738 33.7528861 82.0514738 33.7528861 81.7757763 33.7528861 81.7757763 33.4776761 81.7757763 25.5521761 81.7757763 25.2764155 82.0514738 25.2764155 95.2009738 25.2764155 95.2009738 17.7356592 82.0514738 17.7356592 81.7757763 17.7356592 81.7757763 17.4604492 81.7757763 10.6352391 81.7757763 10.3594786 82.0514738 10.3594786 96.9689738 10.3594786 96.9689738 1.05792815"/>
            <path d="M99.8975,22.0288815 C99.95275,36.1746798 110.837,42.5595538 120.8925,42.5595538 L121.05825,42.5595538 C129.401,42.5595538 138.84875,38.3763605 140.50625,26.7074529 L130.56125,26.7074529 C129.401,30.8911966 125.865,33.422579 121.05825,33.422579 C114.87025,33.3680874 110.395,28.5788815 110.395,21.9738395 C110.395,14.8734193 114.64925,10.1398059 121.05825,10.1398059 C124.92575,10.1398059 127.7435,11.5708983 129.45625,14.3229992 L137.799,9.31417563 C134.484,4.08518403 128.24075,0.947789076 121.05825,0.947789076 C115.5885,0.947789076 110.45025,2.81976807 106.58275,6.23182269 C102.218,10.1398059 99.95275,15.5889655 99.8975,22.0288815" id="Fill-4"/>
            <polygon id="Fill-6" points="167.57875 1.05792815 167.57875 22.084529 148.46225 2.98439874 143.2135 6.12234412 143.2135 42.6146508 153.048 42.6146508 153.048 21.6986845 173.601553 42.5590584 177.4685 42.5590584 177.4685 1.05792815"/>
            <path d="M186.142584,28.7441176 L180.286637,41.4037815 L180.286637,42.6147059 L190.286334,42.6147059 L192.662637,37.5508403 L192.717887,37.3862647 L192.883084,37.3862647 L209.347584,37.3862647 L209.513887,37.3862647 L209.568584,37.5508403 L211.944334,42.6147059 L221.944584,42.6147059 L221.944584,41.4026807 L205.038084,4.6907563 L199.016387,1.11302521 L186.142584,28.7441176 Z M200.950137,17.4060126 L201.226387,16.8 L201.502637,17.4060126 L206.143084,28.3588235 L206.308282,28.7441176 L205.866834,28.7441176 L196.419084,28.7441176 L195.977637,28.7441176 L200.950137,17.4060126 Z" id="Fill-7"/>
        </g>
        <g id="08-Logo/Cube" transform="translate(15.000000, 17.000000)">
            <path d="M56.4663096,15.3222939 C56.1334675,14.7578491 55.6702623,14.266907 55.0984211,13.9151114 L32.8164912,0.555199123 C32.1692982,0.184912281 31.4296491,0 30.7362281,0 C29.9965789,0 29.3031579,0.184912281 28.6559649,0.555199123 L6.32780702,13.9151114 C5.74810702,14.2719921 5.26825965,14.7596982 4.92339825,15.3283035 C4.55403596,15.9380518 4.34,16.6402561 4.34,17.3822167 L4.34,44.147807 C4.34,44.9068719 4.55264912,45.623407 4.93264386,46.2424009 C5.27103333,46.7929772 5.74071053,47.2672772 6.32780702,47.6149123 L28.6097368,60.9748246 C29.2569298,61.3446491 29.9965789,61.5757895 30.69,61.5757895 C31.4296491,61.5757895 32.1230702,61.3913395 32.7702632,60.9748246 L55.052193,47.6149123 C55.6207982,47.2654281 56.0909377,46.7888167 56.4348746,46.2350044 C56.8171807,45.6173974 57.04,44.903636 57.04,44.147807 L57.04,17.3822167 C57.04,16.6550491 56.8328982,15.9440614 56.4663096,15.3222939" id="Fill-1" fill="#F4A11E"/>
            <g id="Group-2" stroke-width="1" transform="translate(4.340000, 0.000000)">
                <g id="Page-1">
                    <g id="Group-3" transform="translate(26.396040, 14.898507)">
                        <mask id="mask-2" fill="white">
                            <use xlink:href="#path-1"/>
                        </mask>
                        <g id="Clip-2"/>
                        <path d="M25.789579,31.3766731 C26.1725531,30.7589866 26.3962248,30.0441358 26.3962248,29.288106 L26.3962248,2.49855373 C26.3962248,1.77121045 26.1882981,1.05913582 25.821069,0.436822388 L0.000185235366,15.9164642 L25.789579,31.3766731 Z" id="Fill-1" fill="#FABA24" mask="url(#mask-2)"/>
                    </g>
                    <path d="M26.3960396,61.6296657 C27.1369811,61.6296657 27.8316137,61.4450537 28.4799375,61.0281731 L50.800799,47.6565313 C51.3703978,47.3067403 51.8413587,46.8297104 52.1854334,46.2749493 L26.3960396,30.8147403 L26.3960396,61.6296657 Z" id="Fill-4" fill="#F4A11E"/>
                    <path d="M0.593771965,46.2828612 C0.932289595,46.8339209 1.40278742,47.3081746 1.9913728,47.6565776 L24.3122344,61.0282194 C24.9605581,61.3983687 25.7014996,61.6297119 26.3961322,61.6297119 L26.3961322,30.8147866 L0.593771965,46.2828612 Z" id="Fill-6" fill="#D36529"/>
                    <path d="M0.584510196,15.341391 C0.214039465,15.9516746 9.26176828e-05,16.6544955 9.26176828e-05,17.3971075 L9.26176828e-05,44.1866597 C9.26176828e-05,44.9459284 0.2126502,45.6630925 0.593771965,46.2830925 L26.3961322,30.8150179 L0.584510196,15.341391 Z" id="Fill-8" fill="#D8752F"/>
                    <path d="M50.8470153,13.9268657 L28.5261537,0.555223881 C27.8778299,0.185074627 27.1368884,-2.84217094e-14 26.4422558,-2.84217094e-14 C25.7013144,-2.84217094e-14 25.0066817,0.185074627 24.358358,0.555223881 L1.99118756,13.9268657 C1.41047469,14.2840597 0.929788918,14.7726567 0.584324961,15.3412985 L26.395947,30.8149254 L52.2172939,15.3352836 C51.8838702,14.7703433 51.4198556,14.2794328 50.8470153,13.9268657" id="Fill-10" fill="#D53416"/>
                </g>
            </g>
        </g>
    </g>
</svg>