<?xml version="1.0" encoding="UTF-8"?>
<svg width="328px" height="96px" viewBox="80 0 328 96" version="1.1" xmlns="http://www.w3.org/2000/svg" xmlns:xlink="http://www.w3.org/1999/xlink">
    <!-- Generator: Sketch 58 (84663) - https://sketch.com -->
    <title>08-Logo/Line</title>
    <desc>Created with Sketch.</desc>
    <defs>
        <polygon id="path-1" points="26.3960396 31.3766731 26.3960396 0.436822388 0.000185235366 0.436822388 0.000185235366 31.3766731"/>
    </defs>
    <g id="08-Logo/Line" stroke="none" stroke-width="1" fill="none" fill-rule="evenodd">
        <g id="08-Logo/Text-Black" transform="translate(87.000000, 27.000000)" fill="#35312E">
            <polygon id="Fill-1" points="18.0168895 4.69053613 0.9998895 41.4041118 0.9998895 42.6144857 11.0001395 42.6144857 13.3758895 37.4961286 13.4863895 37.3304521 13.6521395 37.3304521 30.117192 37.3304521 30.3376395 37.3304521 30.3928895 37.4961286 32.7686395 42.6144857 42.7688895 42.6144857 42.7688895 41.4041118 36.9123895 28.7438975 26.6358895 28.7438975 17.1881395 28.7438975 16.746692 28.7438975 16.9118895 28.3586034 21.553442 17.4057924 21.8291395 16.8003303 22.105942 17.4057924 24.9231395 23.845158 32.548192 19.3317126 24.039692 1.05776303"/>
            <polygon id="Fill-2" points="35.6971105 1.05792815 35.6971105 10.3594786 47.1891105 10.3594786 47.4653605 10.3594786 47.4653605 10.6352391 47.4653605 42.6146508 57.3551105 42.6146508 57.3551105 10.6352391 57.3551105 10.3594786 57.6313605 10.3594786 69.0681105 10.3594786 69.0681105 1.05792815"/>
            <polygon id="Fill-3" points="71.8307763 1.05792815 71.8307763 42.6146508 97.5214738 42.6146508 97.5214738 33.7528861 82.0514738 33.7528861 81.7757763 33.7528861 81.7757763 33.4776761 81.7757763 25.5521761 81.7757763 25.2764155 82.0514738 25.2764155 95.2009738 25.2764155 95.2009738 17.7356592 82.0514738 17.7356592 81.7757763 17.7356592 81.7757763 17.4604492 81.7757763 10.6352391 81.7757763 10.3594786 82.0514738 10.3594786 96.9689738 10.3594786 96.9689738 1.05792815"/>
            <path d="M99.8975,22.0288815 C99.95275,36.1746798 110.837,42.5595538 120.8925,42.5595538 L121.05825,42.5595538 C129.401,42.5595538 138.84875,38.3763605 140.50625,26.7074529 L130.56125,26.7074529 C129.401,30.8911966 125.865,33.422579 121.05825,33.422579 C114.87025,33.3680874 110.395,28.5788815 110.395,21.9738395 C110.395,14.8734193 114.64925,10.1398059 121.05825,10.1398059 C124.92575,10.1398059 127.7435,11.5708983 129.45625,14.3229992 L137.799,9.31417563 C134.484,4.08518403 128.24075,0.947789076 121.05825,0.947789076 C115.5885,0.947789076 110.45025,2.81976807 106.58275,6.23182269 C102.218,10.1398059 99.95275,15.5889655 99.8975,22.0288815" id="Fill-4"/>
            <polygon id="Fill-6" points="167.57875 1.05792815 167.57875 22.084529 148.46225 2.98439874 143.2135 6.12234412 143.2135 42.6146508 153.048 42.6146508 153.048 21.6986845 173.601553 42.5590584 177.4685 42.5590584 177.4685 1.05792815"/>
            <path d="M186.142584,28.7441176 L180.286637,41.4037815 L180.286637,42.6147059 L190.286334,42.6147059 L192.662637,37.5508403 L192.717887,37.3862647 L192.883084,37.3862647 L209.347584,37.3862647 L209.513887,37.3862647 L209.568584,37.5508403 L211.944334,42.6147059 L221.944584,42.6147059 L221.944584,41.4026807 L205.038084,4.6907563 L199.016387,1.11302521 L186.142584,28.7441176 Z M200.950137,17.4060126 L201.226387,16.8 L201.502637,17.4060126 L206.143084,28.3588235 L206.308282,28.7441176 L205.866834,28.7441176 L196.419084,28.7441176 L195.977637,28.7441176 L200.950137,17.4060126 Z" id="Fill-7"/>
        </g>
    </g>
</svg>